<?xml version="1.0" encoding="UTF-8" standalone="no"?>
<!-- Created with Inkscape (http://www.inkscape.org/) -->

<svg
   width="256"
   height="256"
   viewBox="0 0 256 256"
   version="1.1"
   id="svg1"
   xml:space="preserve"
   xmlns:xlink="http://www.w3.org/1999/xlink"
   xmlns="http://www.w3.org/2000/svg"
   xmlns:svg="http://www.w3.org/2000/svg"><defs
     id="defs1" /><g
     id="layer4"
     style="display:inline"><path
       id="path3"
       style="display:inline;fill:#88d2fa;stroke:#88d2fa;stroke-width:0.264058;stroke-linejoin:bevel;stroke-dasharray:none"
       d="M 207.69959,31.655352 41.316449,32.625248 c 0,0 -46.4344844,26.600313 -40.1466996,79.804632 L 74.20436,113.1573 73.96188,137.33923 4.0717236,137.09677 18.581654,228.02824 H 234.78351 l 15.96477,-87.0596 -73.27709,-0.72742 0.72358,-27.56886 76.42154,-1.20854 C 266.22452,61.161575 207.69959,31.655352 207.69959,31.655352 Z m -81.13632,51.754667 a 31.559833,31.922589 0 0 1 31.56006,31.921831 31.559833,31.922589 0 0 1 -16.60751,28.02305 l 3.91035,39.69255 h -37.48334 l 3.49855,-39.78878 A 31.559833,31.922589 0 0 1 95.003198,115.33185 31.559833,31.922589 0 0 1 126.56327,83.410019 Z" /></g></svg>
