<?xml version="1.0" encoding="UTF-8" standalone="no"?>
<!-- Created with Inkscape (http://www.inkscape.org/) -->

<svg
   width="256"
   height="256"
   viewBox="0 0 256 256"
   version="1.1"
   id="svg1"
   xml:space="preserve"
   xmlns:xlink="http://www.w3.org/1999/xlink"
   xmlns="http://www.w3.org/2000/svg"
   xmlns:svg="http://www.w3.org/2000/svg"><defs
     id="defs1" /><g
     id="layer7"
     style="display:inline"><path
       d="m 106.7261,2.6038916 q 22.97813,12.3728424 36.23475,40.6536274 c 92.79631,34.467206 76.88838,156.428111 30.93209,188.244001 L 85.515513,255.36342 131.47177,144.8916 c -20.32681,17.67549 -34.467197,20.32682 -53.91023,11.48907 l -38.002297,17.6755 q -6.186431,6.18641 -19.44305,-3.53511 C 5.9758021,162.56709 5.9758021,154.61311 15.697319,141.35651 L 58.118505,90.981337 C 62.537379,60.933008 71.375124,52.979038 105.84233,50.327714 L 106.7261,2.6038916 M 100.53967,79.492275 C 94.35326,68.88698 73.142666,82.143598 76.677768,90.981337 83.747954,104.23796 104.95854,89.213795 100.53967,79.492275 M 155.33368,17.628058 Q 272.8757,62.700558 239.29226,200.5694 H 226.03564 Q 259.61909,70.654528 155.33368,28.233352 V 17.628058"
       fill="#88d2fa"
       id="path1-5"
       style="stroke-width:88.3775" /></g></svg>
