<?xml version="1.0" encoding="UTF-8" standalone="no"?>
<!-- Created with Inkscape (http://www.inkscape.org/) -->

<svg
   width="256"
   height="256"
   viewBox="0 0 256 256"
   version="1.1"
   id="svg1"
   xml:space="preserve"
   xmlns:xlink="http://www.w3.org/1999/xlink"
   xmlns="http://www.w3.org/2000/svg"
   xmlns:svg="http://www.w3.org/2000/svg"><defs
     id="defs1" /><g
     id="layer2"
     style="display:inline"><path
       id="path7"
       style="opacity:1;fill:#88d2fa;stroke:none;stroke-width:2.02789;stroke-opacity:1"
       d="M 128.18198,10.957333 C 59.148321,10.956031 3.1841896,60.515144 3.1823417,121.65095 3.1817185,182.78828 59.146584,232.34979 128.18198,232.3485 197.21585,232.34789 253.17833,182.78693 253.1777,121.65095 253.17641,60.516508 197.21411,10.957954 128.18198,10.957333 Z M 175.18361,86.5829 c 8.97157,0.224009 18.13187,6.416224 24.79001,16.75771 11.82661,18.36935 12.50188,44.29562 1.50904,57.93712 -10.99362,13.64096 -29.50092,9.84096 -41.35762,-8.49173 l -0.11871,-0.18203 c -11.79608,-18.40717 -12.41995,-44.32282 -1.39415,-57.913343 4.39502,-5.41693 10.21945,-8.266504 16.57157,-8.107549 z m -96.035068,1.196158 c 6.352476,-0.158084 12.176943,2.693013 16.571568,8.111506 11.02578,13.590506 10.40191,39.506176 -1.394169,57.913346 l -0.118712,0.18202 c -11.85747,18.33185 -30.364815,22.1301 -41.357626,8.4878 -10.992832,-13.6415 -10.317559,-39.56775 1.509032,-57.9371 C 61.016786,94.195124 70.177069,88.002928 79.14866,87.7789 Z m 48.534418,82.235992 c 12.14289,-0.14997 13.43467,34.09368 0.38021,34.09368 -15.68998,0 -12.88421,-33.80199 -0.38021,-34.09368 z" /><path
       style="display:inline;fill:#88d2fa;stroke:none;stroke-width:2.05191;stroke-opacity:1"
       d="m 75.125128,221.66105 c -0.544095,29.92522 17.955152,32.10162 53.502712,31.92025 35.54752,-0.18143 52.23311,-2.35769 51.87039,-29.74387"
       id="path10" /></g></svg>
